solid ASCII
  facet normal -0.000000e+00 -1.000000e+00 -0.000000e+00
    outer loop
      vertex   9.701088e+01 1.643499e-01 3.000000e+00
      vertex   1.108842e-01 1.643499e-01 3.000000e+00
      vertex   9.701088e+01 1.643499e-01 0.000000e+00
    endloop
  endfacet
  facet normal 0.000000e+00 -1.000000e+00 0.000000e+00
    outer loop
      vertex   9.701088e+01 1.643499e-01 0.000000e+00
      vertex   1.108842e-01 1.643499e-01 3.000000e+00
      vertex   1.108842e-01 1.643499e-01 0.000000e+00
    endloop
  endfacet
  facet normal -1.000000e+00 0.000000e+00 0.000000e+00
    outer loop
      vertex   1.108842e-01 1.643499e-01 3.000000e+00
      vertex   1.108842e-01 5.956435e+01 3.000000e+00
      vertex   1.108842e-01 1.643499e-01 0.000000e+00
    endloop
  endfacet
  facet normal -1.000000e+00 0.000000e+00 0.000000e+00
    outer loop
      vertex   1.108842e-01 1.643499e-01 0.000000e+00
      vertex   1.108842e-01 5.956435e+01 3.000000e+00
      vertex   1.108842e-01 5.956435e+01 0.000000e+00
    endloop
  endfacet
  facet normal 0.000000e+00 0.000000e+00 1.000000e+00
    outer loop
      vertex   1.108842e-01 1.643499e-01 3.000000e+00
      vertex   9.701088e+01 1.643499e-01 3.000000e+00
      vertex   1.108842e-01 5.956435e+01 3.000000e+00
    endloop
  endfacet
  facet normal -0.000000e+00 0.000000e+00 1.000000e+00
    outer loop
      vertex   1.108842e-01 5.956435e+01 3.000000e+00
      vertex   9.701088e+01 1.643499e-01 3.000000e+00
      vertex   9.701088e+01 5.956435e+01 3.000000e+00
    endloop
  endfacet
  facet normal -0.000000e+00 1.000000e+00 0.000000e+00
    outer loop
      vertex   1.108842e-01 5.956435e+01 3.000000e+00
      vertex   9.701088e+01 5.956435e+01 3.000000e+00
      vertex   1.108842e-01 5.956435e+01 0.000000e+00
    endloop
  endfacet
  facet normal 0.000000e+00 1.000000e+00 0.000000e+00
    outer loop
      vertex   1.108842e-01 5.956435e+01 0.000000e+00
      vertex   9.701088e+01 5.956435e+01 3.000000e+00
      vertex   9.701088e+01 5.956435e+01 0.000000e+00
    endloop
  endfacet
  facet normal 1.000000e+00 0.000000e+00 0.000000e+00
    outer loop
      vertex   9.701088e+01 5.956435e+01 3.000000e+00
      vertex   9.701088e+01 1.643499e-01 3.000000e+00
      vertex   9.701088e+01 5.956435e+01 0.000000e+00
    endloop
  endfacet
  facet normal 1.000000e+00 0.000000e+00 0.000000e+00
    outer loop
      vertex   9.701088e+01 5.956435e+01 0.000000e+00
      vertex   9.701088e+01 1.643499e-01 3.000000e+00
      vertex   9.701088e+01 1.643499e-01 0.000000e+00
    endloop
  endfacet
  facet normal 0.000000e+00 0.000000e+00 -1.000000e+00
    outer loop
      vertex   9.701088e+01 1.643499e-01 0.000000e+00
      vertex   1.108842e-01 1.643499e-01 0.000000e+00
      vertex   9.701088e+01 5.956435e+01 0.000000e+00
    endloop
  endfacet
  facet normal -0.000000e+00 0.000000e+00 -1.000000e+00
    outer loop
      vertex   9.701088e+01 5.956435e+01 0.000000e+00
      vertex   1.108842e-01 1.643499e-01 0.000000e+00
      vertex   1.108842e-01 5.956435e+01 0.000000e+00
    endloop
  endfacet
endsolid
