solid ASCII
  facet normal 0.000000e+00 -1.000000e+00 0.000000e+00
    outer loop
      vertex   1.108842e-01 1.643499e-01 3.000000e+00
      vertex   9.701088e+01 1.643499e-01 3.000000e+00
      vertex   1.108842e-01 1.643499e-01 1.300000e+01
    endloop
  endfacet
  facet normal 0.000000e+00 -1.000000e+00 0.000000e+00
    outer loop
      vertex   1.108842e-01 1.643499e-01 1.300000e+01
      vertex   9.701088e+01 1.643499e-01 3.000000e+00
      vertex   9.701088e+01 1.643499e-01 1.300000e+01
    endloop
  endfacet
  facet normal -1.000000e+00 -0.000000e+00 0.000000e+00
    outer loop
      vertex   1.108842e-01 2.900000e+01 3.000000e+00
      vertex   1.108842e-01 1.643499e-01 3.000000e+00
      vertex   1.108842e-01 2.900000e+01 9.000000e+00
    endloop
  endfacet
  facet normal -1.000000e+00 -0.000000e+00 0.000000e+00
    outer loop
      vertex   1.108842e-01 2.900000e+01 9.000000e+00
      vertex   1.108842e-01 1.643499e-01 3.000000e+00
      vertex   1.108842e-01 1.643499e-01 1.300000e+01
    endloop
  endfacet
  facet normal -1.000000e+00 0.000000e+00 0.000000e+00
    outer loop
      vertex   1.108842e-01 2.900000e+01 9.000000e+00
      vertex   1.108842e-01 1.643499e-01 1.300000e+01
      vertex   1.108842e-01 5.956435e+01 1.300000e+01
    endloop
  endfacet
  facet normal -1.000000e+00 0.000000e+00 0.000000e+00
    outer loop
      vertex   1.108842e-01 2.900000e+01 9.000000e+00
      vertex   1.108842e-01 5.956435e+01 1.300000e+01
      vertex   1.108842e-01 4.400000e+01 9.000000e+00
    endloop
  endfacet
  facet normal -1.000000e+00 0.000000e+00 0.000000e+00
    outer loop
      vertex   1.108842e-01 4.400000e+01 9.000000e+00
      vertex   1.108842e-01 5.956435e+01 1.300000e+01
      vertex   1.108842e-01 5.956435e+01 3.000000e+00
    endloop
  endfacet
  facet normal -1.000000e+00 0.000000e+00 0.000000e+00
    outer loop
      vertex   1.108842e-01 4.400000e+01 9.000000e+00
      vertex   1.108842e-01 5.956435e+01 3.000000e+00
      vertex   1.108842e-01 4.400000e+01 3.000000e+00
    endloop
  endfacet
  facet normal 0.000000e+00 -1.000000e+00 0.000000e+00
    outer loop
      vertex   1.011088e+01 4.896435e+01 3.000000e+00
      vertex   8.701088e+01 4.896435e+01 3.000000e+00
      vertex   1.011088e+01 4.896435e+01 1.300000e+01
    endloop
  endfacet
  facet normal 0.000000e+00 -1.000000e+00 0.000000e+00
    outer loop
      vertex   1.011088e+01 4.896435e+01 1.300000e+01
      vertex   8.701088e+01 4.896435e+01 3.000000e+00
      vertex   8.701088e+01 4.896435e+01 1.300000e+01
    endloop
  endfacet
  facet normal 0.000000e+00 0.000000e+00 1.000000e+00
    outer loop
      vertex   1.011088e+01 4.896435e+01 1.300000e+01
      vertex   1.108842e-01 1.643499e-01 1.300000e+01
      vertex   1.011088e+01 9.564350e+00 1.300000e+01
    endloop
  endfacet
  facet normal 0.000000e+00 0.000000e+00 1.000000e+00
    outer loop
      vertex   1.011088e+01 9.564350e+00 1.300000e+01
      vertex   1.108842e-01 1.643499e-01 1.300000e+01
      vertex   9.701088e+01 1.643499e-01 1.300000e+01
    endloop
  endfacet
  facet normal -0.000000e+00 0.000000e+00 1.000000e+00
    outer loop
      vertex   1.011088e+01 9.564350e+00 1.300000e+01
      vertex   9.701088e+01 1.643499e-01 1.300000e+01
      vertex   8.701088e+01 9.564350e+00 1.300000e+01
    endloop
  endfacet
  facet normal -0.000000e+00 0.000000e+00 1.000000e+00
    outer loop
      vertex   8.701088e+01 9.564350e+00 1.300000e+01
      vertex   9.701088e+01 1.643499e-01 1.300000e+01
      vertex   8.701088e+01 4.896435e+01 1.300000e+01
    endloop
  endfacet
  facet normal -0.000000e+00 0.000000e+00 1.000000e+00
    outer loop
      vertex   8.701088e+01 4.896435e+01 1.300000e+01
      vertex   9.701088e+01 1.643499e-01 1.300000e+01
      vertex   9.701088e+01 5.956435e+01 1.300000e+01
    endloop
  endfacet
  facet normal 0.000000e+00 -0.000000e+00 1.000000e+00
    outer loop
      vertex   8.701088e+01 4.896435e+01 1.300000e+01
      vertex   9.701088e+01 5.956435e+01 1.300000e+01
      vertex   1.108842e-01 5.956435e+01 1.300000e+01
    endloop
  endfacet
  facet normal 0.000000e+00 0.000000e+00 1.000000e+00
    outer loop
      vertex   1.108842e-01 1.643499e-01 1.300000e+01
      vertex   1.011088e+01 4.896435e+01 1.300000e+01
      vertex   1.108842e-01 5.956435e+01 1.300000e+01
    endloop
  endfacet
  facet normal 0.000000e+00 0.000000e+00 1.000000e+00
    outer loop
      vertex   1.108842e-01 5.956435e+01 1.300000e+01
      vertex   1.011088e+01 4.896435e+01 1.300000e+01
      vertex   8.701088e+01 4.896435e+01 1.300000e+01
    endloop
  endfacet
  facet normal 0.000000e+00 1.000000e+00 -0.000000e+00
    outer loop
      vertex   8.701088e+01 9.564350e+00 3.000000e+00
      vertex   1.011088e+01 9.564350e+00 3.000000e+00
      vertex   8.701088e+01 9.564350e+00 1.300000e+01
    endloop
  endfacet
  facet normal 0.000000e+00 1.000000e+00 0.000000e+00
    outer loop
      vertex   8.701088e+01 9.564350e+00 1.300000e+01
      vertex   1.011088e+01 9.564350e+00 3.000000e+00
      vertex   1.011088e+01 9.564350e+00 1.300000e+01
    endloop
  endfacet
  facet normal -1.000000e+00 0.000000e+00 0.000000e+00
    outer loop
      vertex   8.701088e+01 4.896435e+01 3.000000e+00
      vertex   8.701088e+01 9.564350e+00 3.000000e+00
      vertex   8.701088e+01 4.896435e+01 1.300000e+01
    endloop
  endfacet
  facet normal -1.000000e+00 -0.000000e+00 0.000000e+00
    outer loop
      vertex   8.701088e+01 4.896435e+01 1.300000e+01
      vertex   8.701088e+01 9.564350e+00 3.000000e+00
      vertex   8.701088e+01 9.564350e+00 1.300000e+01
    endloop
  endfacet
  facet normal 1.000000e+00 0.000000e+00 -0.000000e+00
    outer loop
      vertex   1.011088e+01 2.900000e+01 3.000000e+00
      vertex   1.011088e+01 2.900000e+01 9.000000e+00
      vertex   1.011088e+01 9.564350e+00 3.000000e+00
    endloop
  endfacet
  facet normal 1.000000e+00 0.000000e+00 0.000000e+00
    outer loop
      vertex   1.011088e+01 9.564350e+00 3.000000e+00
      vertex   1.011088e+01 2.900000e+01 9.000000e+00
      vertex   1.011088e+01 9.564350e+00 1.300000e+01
    endloop
  endfacet
  facet normal 1.000000e+00 -0.000000e+00 0.000000e+00
    outer loop
      vertex   1.011088e+01 9.564350e+00 1.300000e+01
      vertex   1.011088e+01 2.900000e+01 9.000000e+00
      vertex   1.011088e+01 4.896435e+01 1.300000e+01
    endloop
  endfacet
  facet normal 1.000000e+00 0.000000e+00 0.000000e+00
    outer loop
      vertex   1.011088e+01 4.896435e+01 1.300000e+01
      vertex   1.011088e+01 2.900000e+01 9.000000e+00
      vertex   1.011088e+01 4.400000e+01 9.000000e+00
    endloop
  endfacet
  facet normal 1.000000e+00 0.000000e+00 0.000000e+00
    outer loop
      vertex   1.011088e+01 4.896435e+01 1.300000e+01
      vertex   1.011088e+01 4.400000e+01 9.000000e+00
      vertex   1.011088e+01 4.896435e+01 3.000000e+00
    endloop
  endfacet
  facet normal 1.000000e+00 0.000000e+00 0.000000e+00
    outer loop
      vertex   1.011088e+01 4.896435e+01 3.000000e+00
      vertex   1.011088e+01 4.400000e+01 9.000000e+00
      vertex   1.011088e+01 4.400000e+01 3.000000e+00
    endloop
  endfacet
  facet normal 0.000000e+00 1.000000e+00 0.000000e+00
    outer loop
      vertex   1.011088e+01 2.900000e+01 9.000000e+00
      vertex   1.011088e+01 2.900000e+01 3.000000e+00
      vertex   1.108842e-01 2.900000e+01 9.000000e+00
    endloop
  endfacet
  facet normal 0.000000e+00 1.000000e+00 0.000000e+00
    outer loop
      vertex   1.108842e-01 2.900000e+01 9.000000e+00
      vertex   1.011088e+01 2.900000e+01 3.000000e+00
      vertex   1.108842e-01 2.900000e+01 3.000000e+00
    endloop
  endfacet
  facet normal 0.000000e+00 -1.000000e+00 0.000000e+00
    outer loop
      vertex   1.011088e+01 4.400000e+01 3.000000e+00
      vertex   1.011088e+01 4.400000e+01 9.000000e+00
      vertex   1.108842e-01 4.400000e+01 3.000000e+00
    endloop
  endfacet
  facet normal 0.000000e+00 -1.000000e+00 0.000000e+00
    outer loop
      vertex   1.108842e-01 4.400000e+01 3.000000e+00
      vertex   1.011088e+01 4.400000e+01 9.000000e+00
      vertex   1.108842e-01 4.400000e+01 9.000000e+00
    endloop
  endfacet
  facet normal -0.000000e+00 -0.000000e+00 -1.000000e+00
    outer loop
      vertex   1.011088e+01 4.400000e+01 9.000000e+00
      vertex   1.011088e+01 2.900000e+01 9.000000e+00
      vertex   1.108842e-01 4.400000e+01 9.000000e+00
    endloop
  endfacet
  facet normal 0.000000e+00 0.000000e+00 -1.000000e+00
    outer loop
      vertex   1.108842e-01 4.400000e+01 9.000000e+00
      vertex   1.011088e+01 2.900000e+01 9.000000e+00
      vertex   1.108842e-01 2.900000e+01 9.000000e+00
    endloop
  endfacet
  facet normal 0.000000e+00 1.000000e+00 -0.000000e+00
    outer loop
      vertex   9.701088e+01 5.956435e+01 3.000000e+00
      vertex   1.108842e-01 5.956435e+01 3.000000e+00
      vertex   9.701088e+01 5.956435e+01 1.300000e+01
    endloop
  endfacet
  facet normal 0.000000e+00 1.000000e+00 0.000000e+00
    outer loop
      vertex   9.701088e+01 5.956435e+01 1.300000e+01
      vertex   1.108842e-01 5.956435e+01 3.000000e+00
      vertex   1.108842e-01 5.956435e+01 1.300000e+01
    endloop
  endfacet
  facet normal 1.000000e+00 0.000000e+00 0.000000e+00
    outer loop
      vertex   9.701088e+01 1.643499e-01 3.000000e+00
      vertex   9.701088e+01 5.956435e+01 3.000000e+00
      vertex   9.701088e+01 1.643499e-01 1.300000e+01
    endloop
  endfacet
  facet normal 1.000000e+00 -0.000000e+00 0.000000e+00
    outer loop
      vertex   9.701088e+01 1.643499e-01 1.300000e+01
      vertex   9.701088e+01 5.956435e+01 3.000000e+00
      vertex   9.701088e+01 5.956435e+01 1.300000e+01
    endloop
  endfacet
  facet normal 0.000000e+00 0.000000e+00 -1.000000e+00
    outer loop
      vertex   8.701088e+01 4.896435e+01 3.000000e+00
      vertex   9.701088e+01 1.643499e-01 3.000000e+00
      vertex   8.701088e+01 9.564350e+00 3.000000e+00
    endloop
  endfacet
  facet normal 0.000000e+00 -0.000000e+00 -1.000000e+00
    outer loop
      vertex   8.701088e+01 9.564350e+00 3.000000e+00
      vertex   9.701088e+01 1.643499e-01 3.000000e+00
      vertex   1.108842e-01 1.643499e-01 3.000000e+00
    endloop
  endfacet
  facet normal -0.000000e+00 0.000000e+00 -1.000000e+00
    outer loop
      vertex   8.701088e+01 9.564350e+00 3.000000e+00
      vertex   1.108842e-01 1.643499e-01 3.000000e+00
      vertex   1.011088e+01 9.564350e+00 3.000000e+00
    endloop
  endfacet
  facet normal -4.371804e-09 4.650856e-09 -1.000000e+00
    outer loop
      vertex   1.011088e+01 9.564350e+00 3.000000e+00
      vertex   1.108842e-01 1.643499e-01 3.000000e+00
      vertex   1.108842e-01 2.900000e+01 3.000000e+00
    endloop
  endfacet
  facet normal 0.000000e+00 6.900229e-09 -1.000000e+00
    outer loop
      vertex   1.011088e+01 9.564350e+00 3.000000e+00
      vertex   1.108842e-01 2.900000e+01 3.000000e+00
      vertex   1.011088e+01 2.900000e+01 3.000000e+00
    endloop
  endfacet
  facet normal 0.000000e+00 0.000000e+00 -1.000000e+00
    outer loop
      vertex   9.701088e+01 1.643499e-01 3.000000e+00
      vertex   8.701088e+01 4.896435e+01 3.000000e+00
      vertex   9.701088e+01 5.956435e+01 3.000000e+00
    endloop
  endfacet
  facet normal 0.000000e+00 0.000000e+00 -1.000000e+00
    outer loop
      vertex   9.701088e+01 5.956435e+01 3.000000e+00
      vertex   8.701088e+01 4.896435e+01 3.000000e+00
      vertex   1.011088e+01 4.896435e+01 3.000000e+00
    endloop
  endfacet
  facet normal -0.000000e+00 0.000000e+00 -1.000000e+00
    outer loop
      vertex   9.701088e+01 5.956435e+01 3.000000e+00
      vertex   1.011088e+01 4.896435e+01 3.000000e+00
      vertex   1.108842e-01 5.956435e+01 3.000000e+00
    endloop
  endfacet
  facet normal -9.133506e-09 -8.616515e-09 -1.000000e+00
    outer loop
      vertex   1.108842e-01 5.956435e+01 3.000000e+00
      vertex   1.011088e+01 4.896435e+01 3.000000e+00
      vertex   1.108842e-01 4.400000e+01 3.000000e+00
    endloop
  endfacet
  facet normal 0.000000e+00 -2.701471e-08 -1.000000e+00
    outer loop
      vertex   1.108842e-01 4.400000e+01 3.000000e+00
      vertex   1.011088e+01 4.896435e+01 3.000000e+00
      vertex   1.011088e+01 4.400000e+01 3.000000e+00
    endloop
  endfacet
endsolid
